PathFileType	4	(X/Y/Z)	SUBJ11_1_walk_RCNL2025.trc
DataRate	CameraRate	NumFrames	NumMarkers	Units	OrigDataRate	OrigDataStartFrame	OrigNumFrames
100	100	5	25	mm	100	277	443
Frame#	Time	R_Shoulder			L_Shoulder			C7			J_Notch			R_Elbow			L_Elbow			R_Wrist			L_Wrist			R_Asis			L_Asis			Sacral			Thoracic			Sternum			R_Thigh_Lateral			R_Knee_Lateral			R_Shank_Lateral			R_Ankle_Lateral			R_Heel			R_Toe			L_Thigh_Lateral			L_Knee_Lateral			L_Shank_Lateral			L_Ankle_Lateral			L_Heel			L_Toe		
		X1	Y1	Z1	X2	Y2	Z2	X3	Y3	Z3	X4	Y4	Z4	X5	Y5	Z5	X6	Y6	Z6	X7	Y7	Z7	X8	Y8	Z8	X9	Y9	Z9	X10	Y10	Z10	X11	Y11	Z11	X12	Y12	Z12	X13	Y13	Z13	X14	Y14	Z14	X15	Y15	Z15	X16	Y16	Z16	X17	Y17	Z17	X18	Y18	Z18	X19	Y19	Z19	X20	Y20	Z20	X21	Y21	Z21	X22	Y22	Z22	X23	Y23	Z23	X24	Y24	Z24	X25	Y25	Z25
277	2.76000000	-249.953674	1452.987671	179.859848	-255.604294	1448.147583	-215.990158	-298.369202	1496.104614	-17.048042	-151.121216	1391.813721	-12.184925	-337.933105	1119.619019	263.518066	-258.993347	1101.946045	-295.650940	-298.447708	860.037079	252.884071	-143.015987	864.600952	-266.643974	-192.272995	974.363281	137.791153	-194.159637	971.796204	-154.746506	-370.423950	997.070923	-10.411192	-376.853790	1315.076294	-17.631153	-91.377609	1191.095337	-9.603908	-180.482834	637.008789	209.559784	-144.945633	491.137909	151.762344	-259.099609	321.635406	171.353012	-377.405121	165.026245	92.723969	-429.110962	183.979340	38.096260	-275.682922	75.527214	68.345741	-266.484100	624.682556	-217.986664	-247.071091	469.339050	-133.863800	-260.748108	258.634308	-167.946411	-283.549957	65.479156	-99.262405	-342.519165	58.705059	-51.831882	-150.861221	48.243706	-62.876347
278	2.77000000	-239.456635	1452.252563	180.526428	-244.126953	1449.089844	-215.280273	-287.452637	1496.130615	-16.384617	-140.351212	1391.672729	-11.588699	-330.379700	1119.187500	262.702637	-243.875885	1103.259888	-296.739563	-291.666977	859.544739	251.612381	-121.977264	869.142487	-266.260994	-181.528198	974.570679	137.522690	-183.977676	971.641357	-154.959702	-359.933136	997.196533	-10.110073	-366.122498	1315.231445	-17.754423	-80.683792	1190.968384	-9.657264	-164.334183	639.067322	209.758438	-126.164658	493.219849	151.576965	-233.529190	318.811462	171.702103	-344.242737	156.627396	93.561127	-396.686768	172.717667	38.695774	-238.108032	72.300819	70.240913	-260.123474	624.817505	-217.858292	-244.157486	469.163666	-133.510223	-259.396973	258.576202	-167.767929	-283.346832	65.472893	-99.073311	-342.467773	58.884548	-51.761024	-150.859695	48.266319	-62.848694
279	2.78000000	-228.967636	1451.298340	181.254898	-232.676163	1449.725586	-214.549164	-276.497009	1495.953003	-15.687119	-129.575623	1391.296021	-10.947730	-322.679474	1118.532104	261.973236	-228.904541	1104.331787	-297.791962	-284.681732	858.830383	250.417717	-101.192310	873.596252	-265.804993	-170.849121	974.472107	137.342422	-173.784042	971.251099	-155.059250	-349.511597	997.112244	-9.883299	-355.389221	1315.183350	-17.785824	-70.007385	1190.605835	-9.634712	-148.746216	640.792969	209.795197	-108.035164	495.094513	151.356308	-208.248520	315.991547	172.160736	-310.494110	148.162491	94.600281	-363.528381	161.207764	39.451279	-200.086960	69.318199	72.383591	-253.591003	624.809814	-217.799759	-241.136322	468.944427	-133.199417	-257.956543	258.481598	-167.622787	-283.116425	65.459999	-98.884491	-342.370270	59.060303	-51.678246	-150.863770	48.291100	-62.832371
280	2.79000000	-218.480942	1450.150269	182.036621	-221.244629	1450.078369	-213.789368	-265.500763	1495.579956	-14.949841	-118.782890	1390.694336	-10.254847	-314.759460	1117.671875	261.328461	-214.062424	1105.183960	-298.793488	-277.501175	857.892639	249.274254	-80.677200	877.940552	-265.275360	-160.221329	974.089966	137.247223	-163.548218	970.655884	-155.054718	-339.129669	996.813660	-9.722919	-344.642395	1314.937500	-17.721817	-59.351639	1190.018066	-9.526969	-133.762054	642.126099	209.668671	-90.571609	496.694000	151.115128	-183.157242	313.105743	172.736588	-276.156769	139.732758	95.856644	-329.670105	149.596848	40.436253	-161.678070	66.692757	74.641487	-246.899338	624.658020	-217.796921	-238.016785	468.691040	-132.925476	-256.422852	258.351837	-167.506165	-282.880737	65.446396	-98.701591	-342.234955	59.235405	-51.581173	-150.869003	48.314491	-62.823414
281	2.80000000	-207.986145	1448.833008	182.861893	-209.827423	1450.175293	-212.991364	-254.462799	1495.017700	-14.166166	-107.962135	1389.879883	-9.504277	-306.563751	1116.624512	260.767487	-199.337738	1105.844116	-299.729401	-270.129944	856.738129	248.162422	-60.455240	882.155579	-264.673439	-149.632233	973.448792	137.235229	-153.240936	969.886597	-154.958771	-328.740723	996.295105	-9.612906	-333.873169	1314.501221	-17.562595	-48.716000	1189.213745	-9.325186	-119.400284	643.018372	209.394897	-73.778595	497.948608	150.869568	-158.134995	310.097656	173.431137	-241.231674	131.442093	97.332855	-295.147827	138.031464	41.708271	-122.943520	64.535156	76.886520	-240.062149	624.363342	-217.834625	-234.807449	468.414154	-132.684021	-254.797668	258.190491	-167.413345	-282.651459	65.438004	-98.529594	-342.082123	59.419456	-51.473064	-150.864197	48.333603	-62.815010
